<?xml version="1.0" encoding="UTF-8"?>
<svg xmlns="http://www.w3.org/2000/svg" xmlns:xlink="http://www.w3.org/1999/xlink" version="1.1" viewBox="0 0 562 221">
  <defs>
    <style>
      .cls-1 {
        fill: none;
      }

      .cls-2 {
        fill-rule: evenodd;
      }

      .cls-2, .cls-3 {
        fill: #fff;
      }

      .cls-4 {
        clip-path: url(#clippath);
      }
    </style>
    <clipPath id="clippath">
      <rect class="cls-1" x=".5" y="0" width="560.8" height="220.5"/>
    </clipPath>
  </defs>
  <!-- Generator: Adobe Illustrator 28.7.1, SVG Export Plug-In . SVG Version: 1.2.0 Build 142)  -->
  <g>
    <g id="Capa_1">
      <g class="cls-4">
        <g>
          <path class="cls-2" d="M165.8,3.6c.6-1.2.1-2.7-1.1-3.3-1.2-.6-2.7-.1-3.3,1.1l-22.8,46.1c-35.3-20-80.9-15-111,15.1-36.1,36.1-36.1,94.7,0,130.8,36.1,36.1,94.7,36.1,130.8,0,30.2-30.2,35.1-76,14.9-111.3l46-22.7c1.2-.6,1.7-2.1,1.1-3.3-.6-1.2-2.1-1.7-3.3-1.1l-42.2,20.8c1.5-3.3,2.2-6.9,2.1-10.4l20.1-14.6c1.1-.8,1.4-2.4.6-3.5-.8-1.1-2.4-1.4-3.5-.6l-18.1,13.1c-.8-2.7-2.1-5.3-4-7.6l19.2-19.2c1-1,1-2.6,0-3.5s-2.6-1-3.5,0l-19.2,19.2c-2.3-1.8-4.9-3.2-7.6-4l13.1-18.1c.8-1.1.6-2.7-.6-3.5-1.1-.8-2.7-.6-3.5.6l-14.6,20.1c-3.6-.1-7.1.5-10.4,2.1L165.8,3.6ZM166.1,85.6l-1.8.9c-.1,0-.2.1-.4.1-8.3,3.8-18.5,2.3-25.4-4.5-6.9-6.9-8.4-17-4.5-25.4,0-.1,0-.2.1-.4l.9-1.7c-32.3-18.6-74.2-14-101.8,13.6C.2,101.2.2,154.8,33.2,187.8c33,33,86.5,33,119.5,0s32.1-69.8,13.4-102.1ZM142.1,53.8c6.8-6.8,17.9-6.8,24.7,0,6.8,6.8,6.8,17.9,0,24.7-6.8,6.8-17.9,6.8-24.7,0-6.8-6.8-6.8-17.9,0-24.7Z"/>
          <path class="cls-3" d="M365.8,30.3h-6.7l-6.4-17.2c.2,1.7.4,3.2.5,4.5.1,1.3.2,2.8.2,4.6v8.1h-4.7V8.1h6.5l6.6,17.2c-.5-2.9-.7-5.7-.7-8.3v-9h4.7v22.2Z"/>
          <path class="cls-3" d="M389.6,30.3l-1.2-4.8h-6.5l-1.1,4.8h-5.4l6.7-22.2h6.4l6.7,22.2h-5.6ZM382.9,21.7h4.7l-2.3-9.8-2.3,9.8Z"/>
          <path class="cls-3" d="M412,7.6c1.7,0,3.1.2,4.3.7,1.2.5,2.4,1.2,3.4,2.1l-2.4,2.8c-1.5-1.2-3.1-1.9-4.9-1.9s-1.6.2-2.2.6c-.5.4-.8.9-.8,1.6s.1.9.4,1.2c.2.3.7.6,1.2.9.6.3,1.5.6,2.7,1,2.3.7,3.9,1.6,5,2.7,1.1,1,1.6,2.5,1.6,4.5s-.4,2.6-1.1,3.7c-.7,1-1.7,1.9-3,2.5-1.3.6-2.9.9-4.7.9s-3.4-.3-4.8-.9c-1.4-.6-2.6-1.3-3.6-2.3l2.7-2.9c.9.7,1.7,1.3,2.6,1.6.9.4,1.9.5,3,.5s1.9-.2,2.6-.7c.6-.5,1-1.2,1-2s-.1-1-.4-1.4c-.2-.4-.6-.7-1.2-1-.6-.3-1.4-.6-2.5-1-2.5-.7-4.2-1.7-5.2-2.8-1-1.1-1.5-2.5-1.5-4.1s.3-2.4,1-3.4c.7-1,1.6-1.7,2.8-2.2,1.2-.5,2.6-.8,4.1-.8Z"/>
          <path class="cls-3" d="M442.7,30.3l-1.2-4.8h-6.5l-1.1,4.8h-5.4l6.7-22.2h6.4l6.7,22.2h-5.6ZM436,21.7h4.7l-2.3-9.8-2.3,9.8Z"/>
          <path class="cls-3" d="M243,44.4v26.3h-5.6v-26.3h5.6Z"/>
          <path class="cls-3" d="M273,70.7h-7.2l-8.4-20.9c.2,1.8.4,3.5.5,5.1.2,1.6.2,3.4.2,5.5v10.2h-5.1v-26.3h7l8.5,20.9c-.5-3.4-.8-6.5-.8-9.3v-11.6h5.1v26.3Z"/>
          <path class="cls-3" d="M300.5,44.4l-.6,4.4h-6.6v21.9h-5.6v-21.9h-7v-4.4h19.8Z"/>
          <path class="cls-3" d="M323.6,44.4l-.6,4.1h-9.5v6.8h8.3v4h-8.3v7.3h10.2v4.1h-15.8v-26.3h15.7Z"/>
          <path class="cls-3" d="M341,60.4h-2.9v10.3h-5.6v-26.3h8.2c3.5,0,6.2.7,7.9,2,1.8,1.3,2.7,3.3,2.7,5.9s-.4,3.1-1.3,4.3c-.8,1.1-2.1,2.1-3.9,2.9l6.8,11.3h-6.3l-5.6-10.3ZM338.2,56.5h2.9c1.5,0,2.6-.3,3.4-1,.8-.7,1.1-1.7,1.1-3.2s-.4-2.3-1.2-2.9c-.8-.6-2-1-3.7-1h-2.5v8.1Z"/>
          <path class="cls-3" d="M380.3,70.7h-7.2l-8.4-20.9c.2,1.8.4,3.5.5,5.1.2,1.6.2,3.4.2,5.5v10.2h-5.1v-26.3h7l8.5,20.9c-.5-3.4-.8-6.5-.8-9.3v-11.6h5.1v26.3Z"/>
          <path class="cls-3" d="M404.3,70.7l-1.5-5.9h-8.2l-1.5,5.9h-5.8l8.1-26.3h6.8l8.1,26.3h-5.9ZM395.7,60.7h6.1l-3.1-12.1-3,12.1Z"/>
          <path class="cls-3" d="M432.8,44.4l-.6,4.4h-6.6v21.9h-5.6v-21.9h-7v-4.4h19.8Z"/>
          <path class="cls-3" d="M445.8,44.4v26.3h-5.6v-26.3h5.6Z"/>
          <path class="cls-3" d="M466.3,43.8c2.4,0,4.5.5,6.2,1.6,1.7,1.1,3.1,2.6,4,4.7.9,2.1,1.4,4.5,1.4,7.4s-.5,5.3-1.4,7.4c-.9,2.1-2.3,3.6-4,4.7-1.7,1.1-3.8,1.6-6.2,1.6s-4.5-.5-6.3-1.6c-1.7-1.1-3.1-2.7-4-4.7-.9-2.1-1.4-4.6-1.4-7.4s.5-5.3,1.4-7.3c1-2.1,2.3-3.7,4.1-4.8,1.8-1.1,3.9-1.7,6.2-1.7ZM466.3,48c-1.9,0-3.4.8-4.4,2.3-1,1.5-1.4,4-1.4,7.3s.5,5.8,1.5,7.3c1,1.5,2.4,2.3,4.3,2.3s3.4-.7,4.3-2.2c1-1.5,1.4-4,1.4-7.3s-.5-5.8-1.4-7.3c-1-1.5-2.4-2.3-4.3-2.3Z"/>
          <path class="cls-3" d="M506.6,70.7h-7.2l-8.4-20.9c.2,1.8.4,3.5.5,5.1.2,1.6.2,3.4.2,5.5v10.2h-5.1v-26.3h7l8.5,20.9c-.5-3.4-.8-6.5-.8-9.3v-11.6h5.1v26.3Z"/>
          <path class="cls-3" d="M530.6,70.7l-1.5-5.9h-8.2l-1.5,5.9h-5.8l8.1-26.3h6.8l8.1,26.3h-5.9ZM522,60.7h6.1l-3.1-12.1-3,12.1Z"/>
          <path class="cls-3" d="M549.1,44.4v21.8h10.4l-.6,4.5h-15.4v-26.3h5.6Z"/>
          <path class="cls-3" d="M254.9,158c0,4.1-1.6,6.4-5.5,6.4s-5.8-2.9-5.8-7.6v-17.2h-7.7v18.4c0,9.3,4.1,14.3,13.5,14.3s13.3-5.1,13.3-14.3v-12.4c0-7.6-.9-10.2-3.8-13.8-3.3-4.1-9.3-9.1-13.1-14.1-1.6-2-1.9-3-1.9-6.7v-12.8c0-4.1,1.9-6.2,5.6-6.2s5.5,2.9,5.5,7.2v14.7h7.5v-15.8c0-9.6-3.5-14.3-12.8-14.3s-13.8,4.6-13.8,14.3v12.9c0,5.8.2,7.9,2.8,11.2,3,3.9,9,8.9,13.4,14.4,2.1,2.6,2.6,3.7,2.6,8.9v12.3Z"/>
          <path class="cls-3" d="M292.5,115c0,5.4-2.2,7.6-6.8,7.6h-5.6v-29.5h5.5c5,0,6.9,2.4,6.9,7.6v14.4ZM280.2,171.4v-41.1h5.6c10.1,0,14.7-4.6,14.7-15.5v-14.2c0-10.9-4.7-15.6-14.8-15.6h-13.4v86.4h8Z"/>
          <path class="cls-3" d="M333.5,171.4l-11.2-86.4h-9.3l-11.9,86.4h7.8l1.9-14.5h12.9l1.9,14.5h8ZM311.6,149.5c2-14.8,3.9-29.1,5.7-44.3,1.7,15.2,3.6,29.5,5.4,44.3h-11Z"/>
          <path class="cls-3" d="M358.4,157.6c0,4.6-1.5,6.8-5.4,6.8s-5.7-2.3-5.7-6.8v-58.8c0-4.5,1.9-6.7,5.7-6.7s5.4,2.1,5.4,6.7v15.2h7.2v-15.3c0-9.8-4.2-14.7-12.6-14.7s-13.8,4.9-13.8,14.9v58.8c0,9.8,4.6,14.6,13.8,14.6s12.6-4.7,12.6-14.8v-17.9h-7.2v18Z"/>
          <path class="cls-3" d="M398.3,171.4v-7.9h-15.4v-32.1h10.5v-8h-10.5v-30.3h14.9v-8.1h-22.9v86.4h23.4Z"/>
          <path class="cls-3" d="M453.8,171.4l-11.2-86.4h-9.3l-11.9,86.4h7.8l1.9-14.5h12.9l1.9,14.5h8ZM431.9,149.5c2-14.8,3.9-29.1,5.7-44.3,1.7,15.2,3.6,29.5,5.4,44.3h-11Z"/>
          <path class="cls-3" d="M482.1,115c0,5.4-2.2,7.6-6.8,7.6h-5.6v-29.5h5.5c5,0,6.9,2.4,6.9,7.6v14.4ZM469.7,171.4v-41.1h5.6c10.1,0,14.7-4.6,14.7-15.5v-14.2c0-10.9-4.7-15.6-14.8-15.6h-13.4v86.4h8Z"/>
          <path class="cls-3" d="M518.6,115c0,5.4-2.2,7.6-6.8,7.6h-5.6v-29.5h5.5c5,0,6.9,2.4,6.9,7.6v14.4ZM506.2,171.4v-41.1h5.6c10.1,0,14.7-4.6,14.7-15.5v-14.2c0-10.9-4.7-15.6-14.8-15.6h-13.4v86.4h8Z"/>
          <path class="cls-3" d="M553.3,158c0,4.1-1.6,6.4-5.5,6.4s-5.8-2.9-5.8-7.6v-17.2h-7.7v18.4c0,9.3,4.1,14.3,13.5,14.3s13.3-5.1,13.3-14.3v-12.4c0-7.6-.9-10.2-3.8-13.8-3.3-4.1-9.3-9.1-13.1-14.1-1.6-2-1.9-3-1.9-6.7v-12.8c0-4.1,1.9-6.2,5.6-6.2s5.5,2.9,5.5,7.2v14.7h7.5v-15.8c0-9.6-3.5-14.3-12.8-14.3s-13.8,4.6-13.8,14.3v12.9c0,5.8.2,7.9,2.8,11.2,3,3.9,9,8.9,13.4,14.4,2.1,2.6,2.6,3.7,2.6,8.9v12.3Z"/>
          <path class="cls-3" d="M247.9,185.3c2.9,0,5.8,1,8,2.9l-3,3.5c-.7-.6-1.5-1-2.3-1.4-.8-.3-1.6-.5-2.5-.5-.8,0-1.7.2-2.4.6-.7.4-1.4,1-1.8,1.7-1,1.5-1.5,3.8-1.5,6.9,0,3.1.5,5.4,1.5,6.8.5.7,1.1,1.3,1.9,1.7.8.4,1.6.6,2.4.5.9,0,1.8-.2,2.6-.5.9-.4,1.7-1,2.5-1.6l2.8,3.6c-1,1-2.3,1.9-3.6,2.5-1.5.6-3,1-4.6,1-2.2,0-4.4-.5-6.3-1.6-1.8-1.1-3.3-2.8-4.2-4.7-1-2.4-1.6-5-1.5-7.6,0-2.6.5-5.1,1.5-7.4.9-2,2.4-3.6,4.2-4.7,1.9-1.1,4-1.7,6.2-1.6Z"/>
          <path class="cls-3" d="M289.3,212.3v-11.3h-7.9v11.3h-6.2v-26.3h6.2v10.2h7.9v-10.2h6.2v26.3h-6.2Z"/>
          <path class="cls-3" d="M330.6,212.3l-1.4-5.7h-7.7l-1.3,5.7h-6.5l7.9-26.3h7.6l7.9,26.3h-6.6ZM322.6,202.1h5.5l-2.8-11.6-2.8,11.6Z"/>
          <path class="cls-3" d="M361.5,185.9v21.4h10.3l-.6,4.9h-15.8v-26.3h6.2Z"/>
          <path class="cls-3" d="M397.2,185.9v21.4h10.2l-.6,4.9h-15.9v-26.3h6.2Z"/>
          <path class="cls-3" d="M442.8,185.9l-.7,4.4h-9.3v6.3h8.1v4.4h-8.1v6.7h9.9v4.5h-16.1v-26.3h16.1Z"/>
          <path class="cls-3" d="M483.1,212.3h-7.9l-7.6-20.4c.3,2,.4,3.8.6,5.3s.2,3.3.2,5.4v9.6h-5.5v-26.3h7.7l7.8,20.4c-.5-3.2-.8-6.5-.8-9.8v-10.6h5.6v26.3Z"/>
          <path class="cls-3" d="M515.6,185.3c3.2,0,6.4,1.1,8.8,3.2l-3.1,3.3c-.8-.6-1.7-1.1-2.6-1.5-.9-.3-1.8-.5-2.7-.5-.9,0-1.8.2-2.6.6-.8.4-1.5,1-2,1.7-1.2,1.5-1.7,3.8-1.7,6.9,0,3.4.4,5.8,1.3,7.2.4.7,1.1,1.2,1.8,1.6.7.4,1.5.5,2.4.5,1.2,0,2.5-.3,3.6-.9v-6h-3.4l-.6-4.4h10.1v13c-1.4.9-2.9,1.6-4.5,2.1-1.6.5-3.2.7-4.9.7-4,0-7-1.2-9-3.5-2-2.3-3-5.8-3-10.3,0-2.6.5-5.1,1.6-7.4,1-2,2.6-3.6,4.5-4.7,2-1.1,4.2-1.7,6.4-1.6Z"/>
          <path class="cls-3" d="M561.1,185.9l-.6,4.4h-9.3v6.3h8.1v4.4h-8.1v6.7h9.9v4.5h-16.1v-26.3h16.1Z"/>
        </g>
      </g>
    </g>
  </g>
</svg>